<svg width="15" height="13" xmlns="http://www.w3.org/2000/svg"><path d="M8.627.674A1.365 1.365 0 0 0 7.437 0c-.496 0-.94.252-1.19.674L4.29 4.002l.498.28A9.495 9.495 0 0 1 8.296 7.73a9.289 9.289 0 0 1 1.27 4.142H8.194a7.97 7.97 0 0 0-1.083-3.47 8.145 8.145 0 0 0-3.01-2.955l-.496-.28-1.832 3.112.498.28c1.216.688 2.068 1.954 2.244 3.313H1.376a.22.22 0 0 1-.197-.111.212.212 0 0 1 0-.223l.876-1.487a3.202 3.202 0 0 0-.995-.56l-.874 1.485a1.313 1.313 0 0 0 0 1.348c.249.421.693.674 1.19.674h4.321v-.563a5.517 5.517 0 0 0-.764-2.8A5.644 5.644 0 0 0 3.326 7.89l.687-1.168a7 7 0 0 1 2.105 2.24 6.84 6.84 0 0 1 .949 3.471v.564h3.662v-.563a10.38 10.38 0 0 0-1.44-5.268 10.63 10.63 0 0 0-3.44-3.564L7.24 1.236a.221.221 0 0 1 .197-.11.22.22 0 0 1 .196.11l6.062 10.301a.211.211 0 0 1 0 .223.22.22 0 0 1-.197.111h-1.424c.018.376.02.752.001 1.126H13.5c.497 0 .941-.253 1.19-.674a1.313 1.313 0 0 0 0-1.348L8.627.674z" fill="#010202" fill-rule="evenodd"/></svg>