<svg width="102" height="13" xmlns="http://www.w3.org/2000/svg"><g fill="none" fill-rule="evenodd"><path d="M21.256 11c-.19 0-.323-.095-.396-.286l-2.475-7.073-.022-.121c0-.059.024-.11.072-.154a.23.23 0 0 1 .159-.066h.528c.08 0 .145.02.192.06.048.04.08.087.094.138l2.178 6.292 2.189-6.292a.281.281 0 0 1 .094-.138.288.288 0 0 1 .192-.06h.528c.059 0 .11.022.154.066a.211.211 0 0 1 .066.154.522.522 0 0 1-.011.121l-2.475 7.073c-.073.19-.205.286-.396.286h-.671zm5.137 0a.228.228 0 0 1-.176-.072.257.257 0 0 1-.066-.181V3.553c0-.073.022-.134.066-.181a.228.228 0 0 1 .176-.072h.55c.08 0 .143.022.187.066.044.044.066.106.066.187v7.194a.246.246 0 0 1-.253.253h-.55zm2.981 0a.228.228 0 0 1-.176-.072.257.257 0 0 1-.066-.181V3.564c0-.08.022-.145.066-.192a.228.228 0 0 1 .176-.072h4.521a.26.26 0 0 1 .192.072.26.26 0 0 1 .072.192v.396a.228.228 0 0 1-.072.176.273.273 0 0 1-.192.066h-3.751v2.453h3.509a.26.26 0 0 1 .193.071.26.26 0 0 1 .071.193v.374a.246.246 0 0 1-.072.181.26.26 0 0 1-.192.072h-3.509v2.541h3.839a.26.26 0 0 1 .193.072.26.26 0 0 1 .071.192v.396a.237.237 0 0 1-.077.181.265.265 0 0 1-.187.072h-4.609zm7.711 0c-.183 0-.297-.095-.341-.286l-1.419-7.073-.022-.121c0-.059.022-.11.066-.154a.211.211 0 0 1 .154-.066h.539c.154 0 .242.062.264.187l1.133 5.742 1.221-3.96c.044-.176.158-.264.341-.264h.385c.176 0 .293.088.352.264l1.21 3.96 1.133-5.742c.022-.125.114-.187.275-.187h.528c.059 0 .11.022.154.066a.211.211 0 0 1 .066.154.618.618 0 0 1-.011.121l-1.43 7.073c-.037.19-.15.286-.341.286h-.396c-.183 0-.304-.092-.363-.275L39.219 6.49l-1.375 4.235c-.051.183-.169.275-.352.275h-.407zm10.439 0a.228.228 0 0 1-.176-.072.257.257 0 0 1-.066-.181V3.553c0-.073.022-.134.066-.181a.228.228 0 0 1 .176-.072h.55c.08 0 .143.022.187.066.044.044.066.106.066.187v7.194a.246.246 0 0 1-.253.253h-.55zm2.981 0a.228.228 0 0 1-.176-.072.257.257 0 0 1-.066-.181V3.564c0-.08.022-.145.066-.192a.228.228 0 0 1 .176-.072h.484c.073 0 .128.015.165.044.037.03.073.066.11.11l3.685 5.676V3.564a.26.26 0 0 1 .072-.192.246.246 0 0 1 .181-.072h.495a.26.26 0 0 1 .192.072.26.26 0 0 1 .072.192v7.172a.265.265 0 0 1-.072.187.237.237 0 0 1-.181.077h-.495c-.125 0-.213-.051-.264-.154l-3.685-5.621v5.522a.246.246 0 0 1-.253.253h-.506zm12.54.11c-.601 0-1.124-.095-1.568-.286-.443-.19-.78-.442-1.011-.754a1.785 1.785 0 0 1-.369-1.006c0-.059.022-.11.066-.154a.224.224 0 0 1 .165-.066h.539c.132 0 .224.073.275.22.066.308.255.574.566.797.312.224.758.336 1.337.336.623 0 1.089-.11 1.397-.33a1.06 1.06 0 0 0 .462-.913.868.868 0 0 0-.225-.616c-.15-.161-.374-.302-.672-.423-.297-.122-.742-.27-1.336-.446-.565-.161-1.014-.334-1.347-.517-.334-.183-.585-.409-.754-.676-.169-.268-.253-.607-.253-1.018 0-.396.106-.75.319-1.061.213-.312.52-.558.924-.738.403-.18.88-.269 1.43-.269.572 0 1.061.1 1.468.303.408.201.717.454.93.759.213.304.326.61.341.918a.224.224 0 0 1-.231.231h-.55a.279.279 0 0 1-.165-.055.3.3 0 0 1-.11-.165c-.044-.315-.22-.576-.528-.781-.308-.205-.693-.308-1.155-.308-.499 0-.895.097-1.188.292-.293.194-.44.482-.44.863 0 .257.068.466.203.627.136.161.345.304.628.429.282.125.694.268 1.237.429.623.176 1.113.352 1.468.528.356.176.622.394.798.655.176.26.264.595.264 1.006 0 .69-.262 1.226-.786 1.612-.525.385-1.234.577-2.129.577zm4.609-.11a.228.228 0 0 1-.176-.072.257.257 0 0 1-.066-.181V3.564c0-.08.022-.145.066-.192a.228.228 0 0 1 .176-.072h4.521a.26.26 0 0 1 .193.072.26.26 0 0 1 .071.192v.396a.228.228 0 0 1-.071.176.273.273 0 0 1-.193.066h-3.751v2.453h3.509a.26.26 0 0 1 .192.071.26.26 0 0 1 .072.193v.374a.246.246 0 0 1-.072.181.26.26 0 0 1-.192.072h-3.509v2.541h3.839a.26.26 0 0 1 .192.072.26.26 0 0 1 .072.192v.396a.237.237 0 0 1-.077.181.265.265 0 0 1-.187.072h-4.609zm6.655 0a.228.228 0 0 1-.176-.072.257.257 0 0 1-.066-.181V3.564c0-.08.022-.145.066-.192a.228.228 0 0 1 .176-.072h.484c.073 0 .128.015.165.044.037.03.073.066.11.11l3.685 5.676V3.564a.26.26 0 0 1 .072-.192.246.246 0 0 1 .181-.072h.495a.26.26 0 0 1 .192.072.26.26 0 0 1 .072.192v7.172a.265.265 0 0 1-.072.187.237.237 0 0 1-.181.077h-.495c-.125 0-.213-.051-.264-.154l-3.685-5.621v5.522a.246.246 0 0 1-.253.253h-.506zm9.317 0a.246.246 0 0 1-.253-.253V4.246H81.25a.246.246 0 0 1-.253-.253v-.429a.26.26 0 0 1 .072-.192.246.246 0 0 1 .181-.072h5.28c.08 0 .143.024.187.072a.273.273 0 0 1 .066.192v.429a.246.246 0 0 1-.253.253h-2.112v6.501a.237.237 0 0 1-.077.181.265.265 0 0 1-.187.072h-.528zm4.653 0a.228.228 0 0 1-.176-.072.257.257 0 0 1-.066-.181V3.564c0-.08.022-.145.066-.192a.228.228 0 0 1 .176-.072h2.684c.836 0 1.49.196 1.964.589.473.392.709.962.709 1.71 0 .557-.14 1.016-.418 1.375-.279.36-.667.609-1.166.748l1.694 2.937a.274.274 0 0 1 .033.121c0 .059-.022.11-.066.154a.211.211 0 0 1-.154.066h-.484a.395.395 0 0 1-.258-.077.727.727 0 0 1-.171-.22l-1.617-2.816h-1.958v2.86a.237.237 0 0 1-.077.181.265.265 0 0 1-.187.072h-.528zm2.64-4.015c1.107 0 1.661-.466 1.661-1.397s-.554-1.397-1.661-1.397h-1.848v2.794h1.848zM97.541 11a.246.246 0 0 1-.253-.253V8.14l-2.651-4.477a.315.315 0 0 1-.033-.143c0-.059.022-.11.066-.154a.211.211 0 0 1 .154-.066h.528c.132 0 .227.062.286.187l2.178 3.597 2.167-3.597c.073-.125.169-.187.286-.187h.528a.23.23 0 0 1 .16.066.204.204 0 0 1 .071.154.343.343 0 0 1-.044.143L98.333 8.14v2.607a.246.246 0 0 1-.072.181.26.26 0 0 1-.192.072h-.528z" fill="#222"/><path d="M8.627.674A1.365 1.365 0 0 0 7.437 0c-.496 0-.94.252-1.19.674L4.29 4.002l.498.28A9.495 9.495 0 0 1 8.296 7.73a9.289 9.289 0 0 1 1.27 4.142H8.194a7.97 7.97 0 0 0-1.083-3.47 8.145 8.145 0 0 0-3.01-2.955l-.496-.28-1.832 3.112.498.28c1.216.688 2.068 1.954 2.244 3.313H1.376a.22.22 0 0 1-.197-.111.212.212 0 0 1 0-.223l.876-1.487a3.202 3.202 0 0 0-.995-.56l-.874 1.485a1.313 1.313 0 0 0 0 1.348c.249.421.693.674 1.19.674h4.321v-.563a5.517 5.517 0 0 0-.764-2.8A5.644 5.644 0 0 0 3.326 7.89l.687-1.168a7 7 0 0 1 2.105 2.24 6.84 6.84 0 0 1 .949 3.471v.564h3.662v-.563a10.38 10.38 0 0 0-1.44-5.268 10.63 10.63 0 0 0-3.44-3.564L7.24 1.236a.221.221 0 0 1 .197-.11.22.22 0 0 1 .196.11l6.062 10.301a.211.211 0 0 1 0 .223.22.22 0 0 1-.197.111h-1.424c.018.376.02.752.001 1.126H13.5c.497 0 .941-.253 1.19-.674a1.313 1.313 0 0 0 0-1.348L8.627.674z" fill="#010202"/></g></svg>